<?xml version="1.0" encoding="UTF-8" standalone="no"?>
<!DOCTYPE svg PUBLIC "-//W3C//DTD SVG 1.1//EN" "http://www.w3.org/Graphics/SVG/1.1/DTD/svg11.dtd">
<svg width="100%" height="100%" viewBox="0 0 1433 1872" version="1.1" xmlns="http://www.w3.org/2000/svg" xmlns:xlink="http://www.w3.org/1999/xlink" xml:space="preserve" xmlns:serif="http://www.serif.com/" style="fill-rule:evenodd;clip-rule:evenodd;stroke-linecap:round;stroke-linejoin:round;stroke-miterlimit:1.5;">
    <g transform="matrix(1,0,0,1,-526.353,-813.601)">
        <g id="Ebene1">
            <path d="M526.353,1753.77L530.839,950.818C530.843,950.049 530.877,949.281 530.941,948.515C530.941,948.515 542.231,813.601 677.193,813.601L1677.52,813.601C1685.5,813.601 1693.13,816.805 1698.72,822.494L1949.93,1078.18C1955.39,1083.74 1958.45,1091.22 1958.45,1099.01L1958.45,2538.95C1958.45,2539.71 1958.42,2540.47 1958.36,2541.23C1958.36,2541.23 1955.81,2575.48 1940.01,2609.72C1922.31,2648.08 1889.05,2685.3 1830.04,2685.3L650.278,2685.3C648.412,2685.3 646.55,2685.13 644.717,2684.78C644.717,2684.78 526.353,2663.11 526.353,2534.46L526.353,1753.94L526.353,1753.77ZM585.802,1754.02L585.802,2534.46C585.802,2604.02 641.926,2622.7 653.694,2625.85L1830.04,2625.85C1860.74,2625.85 1876.82,2604.76 1886.04,2584.81C1895.87,2563.5 1898.52,2542.22 1899,2537.58L1899,1111.17L1665.05,873.05L677.193,873.05C601.88,873.05 591.31,943.678 590.279,952.549L585.802,1754.02Z" style="fill:rgb(0,8,255);"/>
            <path d="M1671.01,876.669L1673.04,1031.73C1673.04,1031.73 1672.9,1094.53 1749.29,1094.53C1825.68,1094.53 1904.72,1097.53 1904.72,1097.53" style="fill:rgb(95,196,255);stroke:rgb(0,8,255);stroke-width:59.45px;"/>
            <path d="M910.453,1520.68L1000.17,1430.96L1085.4,1489.28L1161.66,1448.9L1175.11,1359.19L1305.2,1359.19L1314.17,1453.39L1399.4,1489.28L1489.12,1426.48L1569.86,1511.7L1511.55,1609.27L1542.95,1673.19L1640.66,1699.11C1646.38,1726.82 1647.39,1766.6 1641.15,1830.19L1538.46,1839.17L1502.58,1910.94L1574.35,2005.14L1488.12,2091.37L1399.74,2027.57L1318.66,2072.43L1300.71,2162.14L1184.09,2166.63L1161.66,2072.43L1089.88,2032.06L1000.17,2094.86L914.939,2009.63L968.768,1915.42L937.368,1834.68L834.195,1816.74L834.195,1700.11L937.368,1682.16L968.768,1592.45L910.453,1520.68Z" style="fill:rgb(95,196,255);stroke:rgb(0,8,255);stroke-width:59.45px;"/>
            <g transform="matrix(1.08527,0,0,1.08527,-82.4809,-294.227)">
                <circle cx="1221.09" cy="1898.6" r="144.666" style="fill:white;stroke:rgb(0,8,255);stroke-width:54.78px;"/>
            </g>
        </g>
    </g>
</svg>
