<svg xmlns="http://www.w3.org/2000/svg" viewBox="0 0 1500 1500">
    <g id="gear" style="" transform="matrix(0.973633, 0, 0, 0.973633, 7, 5.120377)">
      <path fill="#8392AA" opacity="1.000000" stroke="none" d="M 0 238.876 C 0 237.412 0 235.947 0.049 233.973 C 0.24500000000000002 233.194 0.441 232.934 0.48900000000000005 232.645 C 2.792 219.262 5.143 205.879 7.348 192.487 C 8.817 183.346 13.961 178.971 23.415 179.613 C 33.849 180.333 44.332 181.303 54.766 182.425 C 63.045 183.321 68.482 180.701 72.646 173.328 C 78.377 163.198 84.06 153.038 89.938 142.996 C 93.955 136.172 93.661 129.863 88.958 123.47 C 82.345 114.613 76.026 105.615 69.658 96.601 C 65.347 90.503 66.18 82.88 71.372 78.408 C 82.247 69.115 93.122 59.813 104.046 50.54 C 110.904 44.706 118.448 45.029 124.718 51.353 C 132.752 59.362 140.736 67.411 148.77 75.341 C 153.179 79.603 158.371 80.847 164.152 78.746 C 176.349 74.293 188.498 69.816 200.646 65.196 C 206.672 62.899 210.101 58.255 210.639 51.882 C 211.619 40.713 212.354 29.525 213.187 18.346 C 213.775 9.94 218.428 5.198 227.099 4.5760000000000005 C 234.643 4.586 241.795 4.562 249.289 4.566 C 257.47 4.591 265.308 4.5809999999999995 273.391 4.601 C 279.759 6.286 283.58 10.425 284.167 16.529 C 285.294 27.982 286.372 39.44 287.254 50.907 C 287.841 57.672 291.515 62.718 297.933 64.976 C 300.137 65.76 302.439 66.524 304.742 67.318 C 314.294 70.737 323.846 74.171 333.545 77.575 C 339.767 79.809 345.155 78.379 349.809 73.666 C 357.598 65.73 365.386 57.8 373.18 49.864 C 379.671 43.309 386.592 43.001 393.764 48.928 C 404.306 57.667 414.852 66.397 425.409 75.106 C 432.345 80.828 433.198 88.127 427.956 95.553 C 421.47 104.718 415.073 113.937 408.739 123.206 C 404.991 128.687 405.06 134.37 408.381 140.067 C 412.535 147.189 416.67 154.307 420.804 161.434 C 422.411 164.192 424.037 166.94 425.6 169.723 C 430.797 178.981 436.254 181.332 446.772 179.951 C 457.147 178.594 467.605 177.732 478.054 177.036 C 485 176.571 490.252 180.759 491.667 187.549 C 493.191 194.794 494.332 202.122 495.704 209.397 C 497.095 216.759 498.565 224.102 500 231.455 C 500 232.719 500 233.978 499.985 235.746 C 497.977 241.477 494.964 245.558 489.14 247.037 C 478.764 249.688 468.453 252.573 458.083 255.247 C 449.539 257.447 445.758 261.606 444.386 270.222 C 442.525 281.911 440.56 293.574 438.557 305.236 C 437.371 312.133 439.443 317.561 445.282 321.543 C 454.722 327.98 464.196 334.387 473.538 340.971 C 480.004 345.527 481.517 352.612 477.662 359.471 C 470.799 371.678 463.907 383.869 456.931 396.012 C 452.307 404.069 445.483 406.069 437.004 402.091 C 427.305 397.546 417.581 393.044 407.891 388.488 C 401.254 385.368 395.209 385.988 389.561 390.896 C 380.783 398.536 372.127 406.271 363.035 413.555 C 356.275 419.01 354.609 425.387 357.059 433.531 C 359.998 443.483 362.692 453.544 365.386 463.592 C 365.925 465.637 366.317 467.871 366.072 469.945 C 365.386 476.294 361.467 479.871 355.589 481.965 C 343.196 486.397 330.704 490.754 318.507 495.745 C 311.11 498.809 302.341 497.031 298.373 487.937 C 293.867 477.442 288.821 467.188 283.825 456.887 C 281.62 452.089 275.644 448.579 270.745 449.14 C 258.107 450.601 245.518 450.506 232.879 449.609 C 225.58 449.091 220.78 452.237 217.742 458.888 C 213.138 469.112 208.533 479.358 203.781 489.527 C 200.254 497.116 193.445 499.73 185.559 496.87 C 172.871 492.283 160.282 487.445 147.399 483.262 C 139.022 480.514 134.515 473.247 137.405 463.574 C 140.345 453.619 142.696 443.469 145.635 433.482 C 147.839 425.828 145.39 420.051 139.463 415.21 C 130.253 407.654 120.946 400.065 111.884 392.344 C 106.397 387.646 100.519 387.166 94.151 390.214 C 83.913 395.101 73.724 400.045 63.486 404.847 C 56.383 408.172 49.573 406.101 45.606 399.436 C 38.405 387.217 31.155 374.971 24.052 362.681 C 19.545 354.936 21.211 347.971 28.558 342.847 C 37.572 336.543 46.585 330.17 55.648 323.87 C 61.428 319.819 63.437 314.21 62.261 307.435 C 60.154 295.269 57.852 283.13 55.697 270.987 C 54.472 264.241 50.602 259.926 43.891 258.226 C 33.849 255.698 24.003 252.857 13.961 250.594 C 7.103 249.051 1.959 245.95 0 238.876" style="stroke-width: 0.49;" id="gear1"></path>
      <path fill="#FFFFFF" opacity="1.000000" stroke="none" d="M 312.579 333.579 C 342.118 309.973 356.079 279.304 352.895 241.551 C 348.094 184.796 297.541 143.28 240.57 148.512 C 179.484 154.111 136.475 212.492 149.26 272.314 C 165.131 346.462 250.612 378.733 312.579 333.579 Z" style="stroke-width: 0.49;" id="gear2"></path>
    </g>
    <g id="gearLeft" style="" transform="matrix(0.973633, 0, 0, 0.973633, 7, 5.120377)">
      <path fill="#8392AA" opacity="1.000000" stroke="none" d="M 0 238.876 C 0 237.412 0 235.947 0.049 233.973 C 0.24500000000000002 233.194 0.441 232.934 0.48900000000000005 232.645 C 2.792 219.262 5.143 205.879 7.348 192.487 C 8.817 183.346 13.961 178.971 23.415 179.613 C 33.849 180.333 44.332 181.303 54.766 182.425 C 63.045 183.321 68.482 180.701 72.646 173.328 C 78.377 163.198 84.06 153.038 89.938 142.996 C 93.955 136.172 93.661 129.863 88.958 123.47 C 82.345 114.613 76.026 105.615 69.658 96.601 C 65.347 90.503 66.18 82.88 71.372 78.408 C 82.247 69.115 93.122 59.813 104.046 50.54 C 110.904 44.706 118.448 45.029 124.718 51.353 C 132.752 59.362 140.736 67.411 148.77 75.341 C 153.179 79.603 158.371 80.847 164.152 78.746 C 176.349 74.293 188.498 69.816 200.646 65.196 C 206.672 62.899 210.101 58.255 210.639 51.882 C 211.619 40.713 212.354 29.525 213.187 18.346 C 213.775 9.94 218.428 5.198 227.099 4.5760000000000005 C 234.643 4.586 241.795 4.562 249.289 4.566 C 257.47 4.591 265.308 4.5809999999999995 273.391 4.601 C 279.759 6.286 283.58 10.425 284.167 16.529 C 285.294 27.982 286.372 39.44 287.254 50.907 C 287.841 57.672 291.515 62.718 297.933 64.976 C 300.137 65.76 302.439 66.524 304.742 67.318 C 314.294 70.737 323.846 74.171 333.545 77.575 C 339.767 79.809 345.155 78.379 349.809 73.666 C 357.598 65.73 365.386 57.8 373.18 49.864 C 379.671 43.309 386.592 43.001 393.764 48.928 C 404.306 57.667 414.852 66.397 425.409 75.106 C 432.345 80.828 433.198 88.127 427.956 95.553 C 421.47 104.718 415.073 113.937 408.739 123.206 C 404.991 128.687 405.06 134.37 408.381 140.067 C 412.535 147.189 416.67 154.307 420.804 161.434 C 422.411 164.192 424.037 166.94 425.6 169.723 C 430.797 178.981 436.254 181.332 446.772 179.951 C 457.147 178.594 467.605 177.732 478.054 177.036 C 485 176.571 490.252 180.759 491.667 187.549 C 493.191 194.794 494.332 202.122 495.704 209.397 C 497.095 216.759 498.565 224.102 500 231.455 C 500 232.719 500 233.978 499.985 235.746 C 497.977 241.477 494.964 245.558 489.14 247.037 C 478.764 249.688 468.453 252.573 458.083 255.247 C 449.539 257.447 445.758 261.606 444.386 270.222 C 442.525 281.911 440.56 293.574 438.557 305.236 C 437.371 312.133 439.443 317.561 445.282 321.543 C 454.722 327.98 464.196 334.387 473.538 340.971 C 480.004 345.527 481.517 352.612 477.662 359.471 C 470.799 371.678 463.907 383.869 456.931 396.012 C 452.307 404.069 445.483 406.069 437.004 402.091 C 427.305 397.546 417.581 393.044 407.891 388.488 C 401.254 385.368 395.209 385.988 389.561 390.896 C 380.783 398.536 372.127 406.271 363.035 413.555 C 356.275 419.01 354.609 425.387 357.059 433.531 C 359.998 443.483 362.692 453.544 365.386 463.592 C 365.925 465.637 366.317 467.871 366.072 469.945 C 365.386 476.294 361.467 479.871 355.589 481.965 C 343.196 486.397 330.704 490.754 318.507 495.745 C 311.11 498.809 302.341 497.031 298.373 487.937 C 293.867 477.442 288.821 467.188 283.825 456.887 C 281.62 452.089 275.644 448.579 270.745 449.14 C 258.107 450.601 245.518 450.506 232.879 449.609 C 225.58 449.091 220.78 452.237 217.742 458.888 C 213.138 469.112 208.533 479.358 203.781 489.527 C 200.254 497.116 193.445 499.73 185.559 496.87 C 172.871 492.283 160.282 487.445 147.399 483.262 C 139.022 480.514 134.515 473.247 137.405 463.574 C 140.345 453.619 142.696 443.469 145.635 433.482 C 147.839 425.828 145.39 420.051 139.463 415.21 C 130.253 407.654 120.946 400.065 111.884 392.344 C 106.397 387.646 100.519 387.166 94.151 390.214 C 83.913 395.101 73.724 400.045 63.486 404.847 C 56.383 408.172 49.573 406.101 45.606 399.436 C 38.405 387.217 31.155 374.971 24.052 362.681 C 19.545 354.936 21.211 347.971 28.558 342.847 C 37.572 336.543 46.585 330.17 55.648 323.87 C 61.428 319.819 63.437 314.21 62.261 307.435 C 60.154 295.269 57.852 283.13 55.697 270.987 C 54.472 264.241 50.602 259.926 43.891 258.226 C 33.849 255.698 24.003 252.857 13.961 250.594 C 7.103 249.051 1.959 245.95 0 238.876" style="stroke-width: 0.49;" id="gear1"></path>
      <path fill="#FFFFFF" opacity="1.000000" stroke="none" d="M 312.579 333.579 C 342.118 309.973 356.079 279.304 352.895 241.551 C 348.094 184.796 297.541 143.28 240.57 148.512 C 179.484 154.111 136.475 212.492 149.26 272.314 C 165.131 346.462 250.612 378.733 312.579 333.579 Z" style="stroke-width: 0.49;" id="gear2"></path>
    </g>
    <g id="gearRight" style="" transform="matrix(0.973633, 0, 0, 0.973633, 7, 5.120377)">
      <path fill="#8392AA" opacity="1.000000" stroke="none" d="M 0 238.876 C 0 237.412 0 235.947 0.049 233.973 C 0.24500000000000002 233.194 0.441 232.934 0.48900000000000005 232.645 C 2.792 219.262 5.143 205.879 7.348 192.487 C 8.817 183.346 13.961 178.971 23.415 179.613 C 33.849 180.333 44.332 181.303 54.766 182.425 C 63.045 183.321 68.482 180.701 72.646 173.328 C 78.377 163.198 84.06 153.038 89.938 142.996 C 93.955 136.172 93.661 129.863 88.958 123.47 C 82.345 114.613 76.026 105.615 69.658 96.601 C 65.347 90.503 66.18 82.88 71.372 78.408 C 82.247 69.115 93.122 59.813 104.046 50.54 C 110.904 44.706 118.448 45.029 124.718 51.353 C 132.752 59.362 140.736 67.411 148.77 75.341 C 153.179 79.603 158.371 80.847 164.152 78.746 C 176.349 74.293 188.498 69.816 200.646 65.196 C 206.672 62.899 210.101 58.255 210.639 51.882 C 211.619 40.713 212.354 29.525 213.187 18.346 C 213.775 9.94 218.428 5.198 227.099 4.5760000000000005 C 234.643 4.586 241.795 4.562 249.289 4.566 C 257.47 4.591 265.308 4.5809999999999995 273.391 4.601 C 279.759 6.286 283.58 10.425 284.167 16.529 C 285.294 27.982 286.372 39.44 287.254 50.907 C 287.841 57.672 291.515 62.718 297.933 64.976 C 300.137 65.76 302.439 66.524 304.742 67.318 C 314.294 70.737 323.846 74.171 333.545 77.575 C 339.767 79.809 345.155 78.379 349.809 73.666 C 357.598 65.73 365.386 57.8 373.18 49.864 C 379.671 43.309 386.592 43.001 393.764 48.928 C 404.306 57.667 414.852 66.397 425.409 75.106 C 432.345 80.828 433.198 88.127 427.956 95.553 C 421.47 104.718 415.073 113.937 408.739 123.206 C 404.991 128.687 405.06 134.37 408.381 140.067 C 412.535 147.189 416.67 154.307 420.804 161.434 C 422.411 164.192 424.037 166.94 425.6 169.723 C 430.797 178.981 436.254 181.332 446.772 179.951 C 457.147 178.594 467.605 177.732 478.054 177.036 C 485 176.571 490.252 180.759 491.667 187.549 C 493.191 194.794 494.332 202.122 495.704 209.397 C 497.095 216.759 498.565 224.102 500 231.455 C 500 232.719 500 233.978 499.985 235.746 C 497.977 241.477 494.964 245.558 489.14 247.037 C 478.764 249.688 468.453 252.573 458.083 255.247 C 449.539 257.447 445.758 261.606 444.386 270.222 C 442.525 281.911 440.56 293.574 438.557 305.236 C 437.371 312.133 439.443 317.561 445.282 321.543 C 454.722 327.98 464.196 334.387 473.538 340.971 C 480.004 345.527 481.517 352.612 477.662 359.471 C 470.799 371.678 463.907 383.869 456.931 396.012 C 452.307 404.069 445.483 406.069 437.004 402.091 C 427.305 397.546 417.581 393.044 407.891 388.488 C 401.254 385.368 395.209 385.988 389.561 390.896 C 380.783 398.536 372.127 406.271 363.035 413.555 C 356.275 419.01 354.609 425.387 357.059 433.531 C 359.998 443.483 362.692 453.544 365.386 463.592 C 365.925 465.637 366.317 467.871 366.072 469.945 C 365.386 476.294 361.467 479.871 355.589 481.965 C 343.196 486.397 330.704 490.754 318.507 495.745 C 311.11 498.809 302.341 497.031 298.373 487.937 C 293.867 477.442 288.821 467.188 283.825 456.887 C 281.62 452.089 275.644 448.579 270.745 449.14 C 258.107 450.601 245.518 450.506 232.879 449.609 C 225.58 449.091 220.78 452.237 217.742 458.888 C 213.138 469.112 208.533 479.358 203.781 489.527 C 200.254 497.116 193.445 499.73 185.559 496.87 C 172.871 492.283 160.282 487.445 147.399 483.262 C 139.022 480.514 134.515 473.247 137.405 463.574 C 140.345 453.619 142.696 443.469 145.635 433.482 C 147.839 425.828 145.39 420.051 139.463 415.21 C 130.253 407.654 120.946 400.065 111.884 392.344 C 106.397 387.646 100.519 387.166 94.151 390.214 C 83.913 395.101 73.724 400.045 63.486 404.847 C 56.383 408.172 49.573 406.101 45.606 399.436 C 38.405 387.217 31.155 374.971 24.052 362.681 C 19.545 354.936 21.211 347.971 28.558 342.847 C 37.572 336.543 46.585 330.17 55.648 323.87 C 61.428 319.819 63.437 314.21 62.261 307.435 C 60.154 295.269 57.852 283.13 55.697 270.987 C 54.472 264.241 50.602 259.926 43.891 258.226 C 33.849 255.698 24.003 252.857 13.961 250.594 C 7.103 249.051 1.959 245.95 0 238.876" style="stroke-width: 0.49;" id="gear1"></path>
      <path fill="#FFFFFF" opacity="1.000000" stroke="none" d="M 312.579 333.579 C 342.118 309.973 356.079 279.304 352.895 241.551 C 348.094 184.796 297.541 143.28 240.57 148.512 C 179.484 154.111 136.475 212.492 149.26 272.314 C 165.131 346.462 250.612 378.733 312.579 333.579 Z" style="stroke-width: 0.49;" id="gear2"></path>
    </g>
    <path id="blueprint" d="M 349.611 41.027 L 115.129 41.027 C 97.253 41.027 94.744 57.792 94.499 59.897 L 93.436 250.138 L 93.436 250.138 L 93.436 435.386 C 93.436 451.897 106.758 456.331 109.551 457.079 L 388.774 457.079 C 396.061 457.079 399.877 452.073 402.066 447.337 C 404.399 442.279 405.028 437.228 405.142 436.127 L 405.142 310.482 L 405.142 97.548 L 349.611 41.027" style="fill: none; stroke: rgb(0, 8, 255); stroke-width: 15px; stroke-linecap: round;"></path>
    <path id="blueprint2" d="M 340.689 42.682 L 341.208 83.142 C 341.208 83.142 341.172 99.527 360.722 99.527 C 380.272 99.527 400.5 100.311 400.5 100.311" style="fill: rgb(95, 196, 255); stroke: rgb(0, 8, 255); stroke-width: 15px;"></path>
    <path id="blueprint3" d="M 170.497 194.751 L 191.792 173.455 L 212.023 187.298 L 230.124 177.713 L 233.317 156.419 L 264.195 156.419 L 266.325 178.779 L 286.555 187.298 L 307.851 172.391 L 327.016 192.62 L 313.175 215.779 L 320.629 230.951 L 343.822 237.104 C 345.179 243.681 345.419 253.124 343.938 268.218 L 319.563 270.349 L 311.046 287.385 L 328.082 309.744 L 307.614 330.212 L 286.636 315.069 L 267.39 325.717 L 263.13 347.011 L 235.448 348.076 L 230.124 325.717 L 213.086 316.134 L 191.792 331.041 L 171.561 310.81 L 184.339 288.448 L 176.885 269.283 L 152.396 265.025 L 152.396 237.341 L 176.885 233.081 L 184.339 211.787 L 170.497 194.751 Z" style="fill: rgb(95, 196, 255); stroke: rgb(0, 8, 255); stroke-width: 14.111;"></path>
    <path d="M 286.634 253.044 C 286.634 273.626 269.949 290.311 249.368 290.311 C 228.786 290.311 212.101 273.626 212.101 253.044 C 212.101 232.463 228.786 215.778 249.368 215.778 C 269.949 215.778 286.634 232.463 286.634 253.044 Z" style="fill: white; stroke: rgb(0, 8, 255); stroke-width: 14.112;" id="blueprint4"></path>
  </svg>