<svg version="1.1" id="Layer_1" xmlns="http://www.w3.org/2000/svg" xmlns:xlink="http://www.w3.org/1999/xlink" x="0px" y="0px"
	 width="100%" viewBox="0 0 809 800" enable-background="new 0 0 809 800" xml:space="preserve">
<path fill="#8392AA" opacity="1.000000" stroke="none" 
	d="
M1.000000,381.000000 
	C1.000000,378.629425 1.000000,376.258881 1.121572,373.072205 
	C1.451844,371.812836 1.773485,371.388824 1.853010,370.923492 
	C5.553675,349.269012 9.298010,327.621643 12.892827,305.949493 
	C15.345230,291.164612 23.671425,284.081940 38.877048,285.128540 
	C55.803219,286.293579 72.709633,287.867432 89.580544,289.675049 
	C103.067291,291.120056 111.826057,286.881287 118.554466,274.955872 
	C127.805702,258.559021 137.011826,242.133728 146.516541,225.883972 
	C152.975739,214.840973 152.533936,204.631393 144.873245,194.289749 
	C134.262772,179.966034 123.977707,165.398285 113.712578,150.822845 
	C106.760475,140.951569 108.079491,128.621140 116.552261,121.384430 
	C134.147690,106.355919 151.721558,91.302109 169.338394,76.298721 
	C180.416977,66.863625 192.574982,67.382965 202.812988,77.611961 
	C215.780624,90.568169 228.680984,103.593239 241.769196,116.426613 
	C248.801025,123.321518 257.260498,125.336716 266.602203,121.929466 
	C286.323517,114.736420 306.024597,107.482628 325.643097,100.015007 
	C335.407623,96.298218 340.919403,88.781944 341.841858,78.472214 
	C343.458344,60.405918 344.667847,42.302326 345.956360,24.207844 
	C346.924316,10.614992 354.416077,2.938428 368.445770,1.931419 
	C380.580902,1.955251 392.250610,1.909163 404.390686,1.922041 
	C417.594147,1.960912 430.327240,1.940817 443.431946,1.970270 
	C453.666290,4.703456 459.814240,11.405625 460.794220,21.273569 
	C462.634003,39.798775 464.351807,58.338524 465.857513,76.893555 
	C466.745972,87.842545 472.678284,96.008278 483.123962,99.657494 
	C486.741089,100.921143 490.367645,102.158081 493.977325,103.442604 
	C509.515717,108.972008 525.043762,114.530312 540.586792,120.046707 
	C550.755493,123.655716 559.529053,121.339302 567.023499,113.708046 
	C579.631775,100.869614 592.250366,88.041306 604.862244,75.206482 
	C615.283447,64.601105 626.565857,64.106491 638.132202,73.695915 
	C655.180420,87.830200 672.240112,101.950645 689.320007,116.046547 
	C700.538635,125.305229 701.923401,137.117935 693.438477,149.123108 
	C682.957886,163.951981 672.602295,178.871155 662.355286,193.862442 
	C656.292358,202.732437 656.399536,211.924881 661.777771,221.147491 
	C668.491638,232.660522 675.181396,244.187576 681.877319,255.711060 
	C684.471802,260.176208 687.106628,264.618958 689.633301,269.122314 
	C698.039062,284.103821 706.876465,287.899292 723.881226,285.671509 
	C740.673096,283.471680 757.591980,282.085632 774.496155,280.954590 
	C785.730530,280.202850 794.231995,286.987976 796.527954,297.963104 
	C798.980774,309.688110 800.831055,321.537933 803.052551,333.312866 
	C805.299316,345.221588 807.678711,357.105316 810.000000,369.000000 
	C810.000000,371.041656 810.000000,373.083344 809.979248,375.947693 
	C806.730103,385.209137 801.851929,391.816956 792.431030,394.216431 
	C775.643616,398.492157 758.958130,403.167084 742.182800,407.491943 
	C728.365540,411.054199 722.242493,417.782501 720.024719,431.728424 
	C717.018860,450.629761 713.834900,469.503723 710.592773,488.366272 
	C708.675598,499.520294 712.033203,508.306030 721.477112,514.744385 
	C736.756470,525.161011 752.074219,535.525879 767.189819,546.176575 
	C777.652527,553.548767 780.100891,565.011230 773.863953,576.108948 
	C762.764038,595.859619 751.610168,615.580872 740.327759,635.227783 
	C732.842102,648.263245 721.805603,651.498535 708.078064,645.063599 
	C692.389160,637.709351 676.667236,630.425232 660.985901,623.054932 
	C650.245422,618.006836 640.458679,619.010437 631.349243,626.950195 
	C617.166626,639.311707 603.093445,651.825867 588.438660,663.609741 
	C577.462341,672.435791 574.724548,682.752869 578.703430,695.928284 
	C583.566223,712.030640 587.857239,728.308533 592.195068,744.564026 
	C593.078003,747.872742 593.711365,751.487183 593.354614,754.843140 
	C592.262634,765.114929 585.874817,770.902588 576.392273,774.288635 
	C556.311584,781.459290 536.161621,788.508728 516.439880,796.584290 
	C504.334564,801.541138 490.183167,798.664185 483.865112,783.951477 
	C476.573364,766.971436 468.359619,750.382446 460.353821,733.716064 
	C456.625397,725.954407 447.015503,720.275391 439.172729,721.182739 
	C418.744110,723.546021 398.320221,723.392456 377.841827,721.941040 
	C366.026062,721.103577 358.208099,726.193176 353.333191,736.953918 
	C345.839722,753.494751 338.422546,770.071899 330.738434,786.524048 
	C325.004028,798.801758 314.024109,803.031616 301.224670,798.403992 
	C280.700073,790.983276 260.306396,783.155701 239.567474,776.388672 
	C225.937210,771.941223 218.608795,760.185120 223.309341,744.535583 
	C228.147156,728.429016 231.929199,712.007874 236.603897,695.848999 
	C240.186264,683.466064 236.223755,674.120056 226.640610,666.286743 
	C211.686447,654.063171 196.772644,641.785645 182.043732,629.292847 
	C173.084000,621.693420 163.622803,620.916687 153.313629,625.847046 
	C136.779602,633.754639 120.288361,641.753662 103.688995,649.521667 
	C92.193871,654.901001 81.229782,651.550110 74.829544,640.767639 
	C63.094624,620.997864 51.428505,601.186157 39.888454,581.302124 
	C32.616562,568.772278 35.355011,557.506165 47.237865,549.214966 
	C61.857071,539.014465 76.396156,528.699097 91.024521,518.511841 
	C100.440544,511.954498 103.634933,502.888306 101.725060,491.923370 
	C98.297554,472.245422 94.665756,452.602936 91.091110,432.950745 
	C89.106232,422.038574 82.891151,415.067627 71.995499,412.308685 
	C55.850147,408.220459 39.823456,403.621857 23.583155,399.964813 
	C12.483682,397.465393 4.226876,392.453491 1.000000,381.000000 
M506.709442,534.220215 
	C554.552795,496.028412 577.257812,446.414917 572.042297,385.334229 
	C564.202026,293.514526 482.487488,226.338654 390.249420,234.800980 
	C291.448059,243.865433 221.781738,338.323303 242.522781,435.097870 
	C268.233063,555.058289 406.490112,607.272827 506.709442,534.220215 
z"/>
<path fill="#FFFFFF" opacity="1.000000" stroke="none" 
	d="
M1.000000,381.468658 
	C4.226876,392.453491 12.483682,397.465393 23.583155,399.964813 
	C39.823456,403.621857 55.850147,408.220459 71.995499,412.308685 
	C82.891151,415.067627 89.106232,422.038574 91.091110,432.950745 
	C94.665756,452.602936 98.297554,472.245422 101.725060,491.923370 
	C103.634933,502.888306 100.440544,511.954498 91.024521,518.511841 
	C76.396156,528.699097 61.857071,539.014465 47.237865,549.214966 
	C35.355011,557.506165 32.616562,568.772278 39.888454,581.302124 
	C51.428505,601.186157 63.094624,620.997864 74.829544,640.767639 
	C81.229782,651.550110 92.193871,654.901001 103.688995,649.521667 
	C120.288361,641.753662 136.779602,633.754639 153.313629,625.847046 
	C163.622803,620.916687 173.084000,621.693420 182.043732,629.292847 
	C196.772644,641.785645 211.686447,654.063171 226.640610,666.286743 
	C236.223755,674.120056 240.186264,683.466064 236.603897,695.848999 
	C231.929199,712.007874 228.147156,728.429016 223.309341,744.535583 
	C218.608795,760.185120 225.937210,771.941223 239.567474,776.388672 
	C260.306396,783.155701 280.700073,790.983276 301.224670,798.403992 
	C314.024109,803.031616 325.004028,798.801758 330.738434,786.524048 
	C338.422546,770.071899 345.839722,753.494751 353.333191,736.953918 
	C358.208099,726.193176 366.026062,721.103577 377.841827,721.941040 
	C398.320221,723.392456 418.744110,723.546021 439.172729,721.182739 
	C447.015503,720.275391 456.625397,725.954407 460.353821,733.716064 
	C468.359619,750.382446 476.573364,766.971436 483.865112,783.951477 
	C490.183167,798.664185 504.334564,801.541138 516.439880,796.584290 
	C536.161621,788.508728 556.311584,781.459290 576.392273,774.288635 
	C585.874817,770.902588 592.262634,765.114929 593.354614,754.843140 
	C593.711365,751.487183 593.078003,747.872742 592.195068,744.564026 
	C587.857239,728.308533 583.566223,712.030640 578.703430,695.928284 
	C574.724548,682.752869 577.462341,672.435791 588.438660,663.609741 
	C603.093445,651.825867 617.166626,639.311707 631.349243,626.950195 
	C640.458679,619.010437 650.245422,618.006836 660.985901,623.054932 
	C676.667236,630.425232 692.389160,637.709351 708.078064,645.063599 
	C721.805603,651.498535 732.842102,648.263245 740.327759,635.227783 
	C751.610168,615.580872 762.764038,595.859619 773.863953,576.108948 
	C780.100891,565.011230 777.652527,553.548767 767.189819,546.176575 
	C752.074219,535.525879 736.756470,525.161011 721.477112,514.744385 
	C712.033203,508.306030 708.675598,499.520294 710.592773,488.366272 
	C713.834900,469.503723 717.018860,450.629761 720.024719,431.728424 
	C722.242493,417.782501 728.365540,411.054199 742.182800,407.491943 
	C758.958130,403.167084 775.643616,398.492157 792.431030,394.216431 
	C801.851929,391.816956 806.730103,385.209137 809.979248,376.385193 
	C810.000000,517.629211 810.000000,659.258362 810.000000,800.943787 
	C540.442139,800.943787 270.884247,800.943787 1.000000,800.943787 
	C1.000000,661.312622 1.000000,521.624939 1.000000,381.468658 
z"/>
<path fill="#FFFFFF" opacity="1.000000" stroke="none" 
	d="
M367.980316,1.861499 
	C354.416077,2.938428 346.924316,10.614992 345.956360,24.207844 
	C344.667847,42.302326 343.458344,60.405918 341.841858,78.472214 
	C340.919403,88.781944 335.407623,96.298218 325.643097,100.015007 
	C306.024597,107.482628 286.323517,114.736420 266.602203,121.929466 
	C257.260498,125.336716 248.801025,123.321518 241.769196,116.426613 
	C228.680984,103.593239 215.780624,90.568169 202.812988,77.611961 
	C192.574982,67.382965 180.416977,66.863625 169.338394,76.298721 
	C151.721558,91.302109 134.147690,106.355919 116.552261,121.384430 
	C108.079491,128.621140 106.760475,140.951569 113.712578,150.822845 
	C123.977707,165.398285 134.262772,179.966034 144.873245,194.289749 
	C152.533936,204.631393 152.975739,214.840973 146.516541,225.883972 
	C137.011826,242.133728 127.805702,258.559021 118.554466,274.955872 
	C111.826057,286.881287 103.067291,291.120056 89.580544,289.675049 
	C72.709633,287.867432 55.803219,286.293579 38.877048,285.128540 
	C23.671425,284.081940 15.345230,291.164612 12.892827,305.949493 
	C9.298010,327.621643 5.553675,349.269012 1.853010,370.923492 
	C1.773485,371.388824 1.451844,371.812836 1.121572,372.628052 
	C1.000000,249.073425 1.000000,125.146843 1.000000,1.000000 
	C123.020805,1.000000 245.041748,1.000000 367.526550,1.215377 
	C367.990417,1.430755 367.980316,1.861499 367.980316,1.861499 
z"/>
<path fill="#FFFFFF" opacity="1.000000" stroke="none" 
	d="
M810.000000,368.531342 
	C807.678711,357.105316 805.299316,345.221588 803.052551,333.312866 
	C800.831055,321.537933 798.980774,309.688110 796.527954,297.963104 
	C794.231995,286.987976 785.730530,280.202850 774.496155,280.954590 
	C757.591980,282.085632 740.673096,283.471680 723.881226,285.671509 
	C706.876465,287.899292 698.039062,284.103821 689.633301,269.122314 
	C687.106628,264.618958 684.471802,260.176208 681.877319,255.711060 
	C675.181396,244.187576 668.491638,232.660522 661.777771,221.147491 
	C656.399536,211.924881 656.292358,202.732437 662.355286,193.862442 
	C672.602295,178.871155 682.957886,163.951981 693.438477,149.123108 
	C701.923401,137.117935 700.538635,125.305229 689.320007,116.046547 
	C672.240112,101.950645 655.180420,87.830200 638.132202,73.695915 
	C626.565857,64.106491 615.283447,64.601105 604.862244,75.206482 
	C592.250366,88.041306 579.631775,100.869614 567.023499,113.708046 
	C559.529053,121.339302 550.755493,123.655716 540.586792,120.046707 
	C525.043762,114.530312 509.515717,108.972008 493.977325,103.442604 
	C490.367645,102.158081 486.741089,100.921143 483.123962,99.657494 
	C472.678284,96.008278 466.745972,87.842545 465.857513,76.893555 
	C464.351807,58.338524 462.634003,39.798775 460.794220,21.273569 
	C459.814240,11.405625 453.666290,4.703456 443.396515,1.741425 
	C442.989410,1.463032 443.000000,1.000000 443.000000,1.000000 
	C565.260498,1.000000 687.520996,1.000000 810.000000,1.000000 
	C810.000000,123.354141 810.000000,245.708405 810.000000,368.531342 
z"/>
<path fill="#C5CCD7" opacity="1.000000" stroke="none" 
	d="
M442.531342,1.000000 
	C443.000000,1.000000 442.989410,1.463032 443.024841,1.691877 
	C430.327240,1.940817 417.594147,1.960912 404.416321,1.706806 
	C403.971588,1.432605 404.000000,1.000000 404.000000,1.000000 
	C416.687561,1.000000 429.375122,1.000000 442.531342,1.000000 
z"/>
<path fill="#F1F3F5" opacity="1.000000" stroke="none" 
	d="
M403.531342,1.000000 
	C404.000000,1.000000 403.971588,1.432605 403.945923,1.647840 
	C392.250610,1.909163 380.580902,1.955251 368.445770,1.931419 
	C367.980316,1.861499 367.990417,1.430755 367.995209,1.215377 
	C379.687561,1.000000 391.375122,1.000000 403.531342,1.000000 
z"/>
<path fill="#FFFFFF" opacity="1.000000" stroke="none" 
	d="
M506.425842,534.438660 
	C406.490112,607.272827 268.233063,555.058289 242.522781,435.097870 
	C221.781738,338.323303 291.448059,243.865433 390.249420,234.800980 
	C482.487488,226.338654 564.202026,293.514526 572.042297,385.334229 
	C577.257812,446.414917 554.552795,496.028412 506.425842,534.438660 
z"/>
</svg>